<svg width="24" height="24" viewBox="0 0 24 24" fill="none" xmlns="http://www.w3.org/2000/svg">
<path d="M21.04 9.76002H21.76C21.9734 9.76002 22.1467 9.68002 22.28 9.52002C22.4134 9.36002 22.48 9.18669 22.48 9.00002C22.48 8.81335 22.4134 8.64002 22.28 8.48002C22.1467 8.32002 21.9734 8.24002 21.76 8.24002H19.92L18.8 6.32002C18.4267 5.73335 17.96 5.28002 17.4 4.96002C16.84 4.64002 16.2134 4.48002 15.52 4.48002H8.48002C7.78669 4.48002 7.16002 4.64002 6.60002 4.96002C6.04002 5.28002 5.57335 5.73335 5.20002 6.32002L4.08002 8.24002H2.24002C2.02669 8.24002 1.85335 8.32002 1.72002 8.48002C1.58669 8.64002 1.52002 8.81335 1.52002 9.00002C1.52002 9.18669 1.58669 9.36002 1.72002 9.52002C1.85335 9.68002 2.02669 9.76002 2.24002 9.76002H3.04002L2.56002 10.32C1.86669 11.28 1.52002 12.3467 1.52002 13.52V17.28C1.52002 17.8667 1.73335 18.3867 2.16002 18.84C2.58669 19.2934 3.12002 19.52 3.76002 19.52H5.28002C5.86669 19.52 6.38669 19.2934 6.84002 18.84C7.29335 18.3867 7.52002 17.8667 7.52002 17.28H16.48C16.48 17.8667 16.7067 18.3867 17.16 18.84C17.6134 19.2934 18.1334 19.52 18.72 19.52H20.24C20.88 19.52 21.4134 19.2934 21.84 18.84C22.2667 18.3867 22.48 17.8667 22.48 17.28V13.52C22.48 12.3467 22.1334 11.28 21.44 10.32L21.04 9.76002ZM6.48002 7.12002C6.69335 6.74669 6.97335 6.46669 7.32002 6.28002C7.66669 6.09335 8.05335 6.00002 8.48002 6.00002H15.52C15.9467 6.00002 16.3334 6.09335 16.68 6.28002C17.0267 6.46669 17.3067 6.74669 17.52 7.12002L18.48 8.80002L18 9.12002C17.36 9.54669 16.6667 9.76002 15.92 9.76002H8.08002C7.33335 9.76002 6.64002 9.54669 6.00002 9.12002L5.52002 8.80002L6.48002 7.12002ZM21.04 17.28C21.04 17.44 20.96 17.6 20.8 17.76C20.64 17.92 20.4534 18 20.24 18H18.72C18.56 18 18.4 17.92 18.24 17.76C18.08 17.6 18 17.44 18 17.28V16.48C18 16.2667 17.9334 16.0934 17.8 15.96C17.6667 15.8267 17.4934 15.76 17.28 15.76H6.72002C6.50669 15.76 6.33335 15.8267 6.20002 15.96C6.06669 16.0934 6.00002 16.2667 6.00002 16.48V17.28C6.00002 17.44 5.92002 17.6 5.76002 17.76C5.60002 17.92 5.44002 18 5.28002 18H3.76002C3.54669 18 3.36002 17.92 3.20002 17.76C3.04002 17.6 2.96002 17.44 2.96002 17.28V13.52C3.01335 12.6667 3.28002 11.92 3.76002 11.28L4.64002 10L5.20002 10.4C6.10669 10.9867 7.06669 11.28 8.08002 11.28H15.92C16.9334 11.28 17.8934 10.9867 18.8 10.4L19.36 10L20.24 11.28C20.72 11.92 20.96 12.6667 20.96 13.52V17.28H21.04ZM18 13.52C18 13.7334 18.0667 13.9067 18.2 14.04C18.3334 14.1734 18.5067 14.24 18.72 14.24C18.9334 14.24 19.12 14.1734 19.28 14.04C19.44 13.9067 19.52 13.7334 19.52 13.52C19.52 13.3067 19.44 13.12 19.28 12.96C19.12 12.8 18.9334 12.72 18.72 12.72C18.5067 12.72 18.3334 12.8 18.2 12.96C18.0667 13.12 18 13.3067 18 13.52ZM4.48002 13.52C4.48002 13.7334 4.56002 13.9067 4.72002 14.04C4.88002 14.1734 5.06669 14.24 5.28002 14.24C5.49335 14.24 5.66669 14.1734 5.80002 14.04C5.93335 13.9067 6.00002 13.7334 6.00002 13.52C6.00002 13.3067 5.93335 13.12 5.80002 12.96C5.66669 12.8 5.49335 12.72 5.28002 12.72C5.06669 12.72 4.88002 12.8 4.72002 12.96C4.56002 13.12 4.48002 13.3067 4.48002 13.52Z" fill="white"/>
</svg>
