<svg width="18" height="18" viewBox="0 0 18 18" fill="none" xmlns="http://www.w3.org/2000/svg">
<g clip-path="url(#clip0_64_438)">
<path d="M9.0001 10.14C6.2801 10.14 4.2001 10.76 2.7601 12C1.3201 13.24 0.600098 15.02 0.600098 17.34C0.600098 17.54 0.670098 17.7 0.810098 17.82C0.950098 17.94 1.1001 18 1.2601 18H16.7401C16.9001 18 17.0501 17.94 17.1901 17.82C17.3301 17.7 17.4001 17.54 17.4001 17.34C17.4001 15.02 16.6801 13.24 15.2401 12C13.8001 10.76 11.7201 10.14 9.0001 10.14ZM1.9801 16.68C2.2201 13.2 4.5601 11.46 9.0001 11.46C13.4401 11.46 15.7801 13.2 16.0201 16.68H1.9801ZM9.0001 0C8.2001 0 7.4601 0.190001 6.7801 0.57C6.1001 0.950001 5.5701 1.48 5.1901 2.16C4.8101 2.84 4.6201 3.6 4.6201 4.44C4.6201 5.28 4.8201 6.07 5.2201 6.81C5.6201 7.55 6.1501 8.13 6.8101 8.55C7.4701 8.97 8.2001 9.18 9.0001 9.18C9.8001 9.18 10.5301 8.97 11.1901 8.55C11.8501 8.13 12.3801 7.55 12.7801 6.81C13.1801 6.07 13.3801 5.28 13.3801 4.44C13.3801 3.6 13.1901 2.84 12.8101 2.16C12.4301 1.48 11.9001 0.950001 11.2201 0.57C10.5401 0.190001 9.8001 0 9.0001 0ZM9.0001 7.86C8.1601 7.86 7.4401 7.53 6.8401 6.87C6.2401 6.21 5.9401 5.41 5.9401 4.47C5.9401 3.53 6.2301 2.77 6.8101 2.19C7.3901 1.61 8.1201 1.32 9.0001 1.32C9.8801 1.32 10.6101 1.62 11.1901 2.22C11.7701 2.82 12.0601 3.58 12.0601 4.5C12.0601 5.42 11.7601 6.21 11.1601 6.87C10.5601 7.53 9.8401 7.86 9.0001 7.86Z" fill="#050B20"/>
</g>
<defs>
<clipPath id="clip0_64_438">
<rect width="18" height="18" fill="white" transform="matrix(1 0 0 -1 0 18)"/>
</clipPath>
</defs>
</svg>
