<svg width="18" height="18" viewBox="0 0 18 18" fill="none" xmlns="http://www.w3.org/2000/svg">
<path d="M2.99996 1.67995C2.43996 1.67995 1.95996 1.87995 1.55996 2.27995C1.15996 2.67995 0.959961 3.16995 0.959961 3.74995C0.959961 4.32995 1.15996 4.81995 1.55996 5.21995C1.95996 5.61995 2.43996 5.81995 2.99996 5.81995C3.55996 5.81995 4.03996 5.61995 4.43996 5.21995C4.83996 4.81995 5.03996 4.32995 5.03996 3.74995C5.03996 3.16995 4.83996 2.67995 4.43996 2.27995C4.03996 1.87995 3.55996 1.67995 2.99996 1.67995ZM2.99996 2.81995C3.23996 2.81995 3.45996 2.90995 3.65996 3.08995C3.85996 3.26995 3.95996 3.48995 3.95996 3.74995C3.95996 4.00995 3.85996 4.22995 3.65996 4.40995C3.45996 4.58995 3.23996 4.67995 2.99996 4.67995C2.75996 4.67995 2.53996 4.58995 2.33996 4.40995C2.13996 4.22995 2.03996 4.00995 2.03996 3.74995C2.03996 3.48995 2.13996 3.26995 2.33996 3.08995C2.53996 2.90995 2.75996 2.81995 2.99996 2.81995ZM2.99996 12.1799C2.43996 12.1799 1.95996 12.3799 1.55996 12.7799C1.15996 13.1799 0.959961 13.6699 0.959961 14.2499C0.959961 14.8299 1.15996 15.3199 1.55996 15.7199C1.95996 16.1199 2.43996 16.3199 2.99996 16.3199C3.55996 16.3199 4.03996 16.1199 4.43996 15.7199C4.83996 15.3199 5.03996 14.8299 5.03996 14.2499C5.03996 13.6699 4.83996 13.1799 4.43996 12.7799C4.03996 12.3799 3.55996 12.1799 2.99996 12.1799ZM2.99996 13.3199C3.23996 13.3199 3.45996 13.4099 3.65996 13.5899C3.85996 13.7699 3.95996 13.9899 3.95996 14.2499C3.95996 14.5099 3.85996 14.7299 3.65996 14.9099C3.45996 15.0899 3.23996 15.1799 2.99996 15.1799C2.75996 15.1799 2.53996 15.0899 2.33996 14.9099C2.13996 14.7299 2.03996 14.5099 2.03996 14.2499C2.03996 13.9899 2.13996 13.7699 2.33996 13.5899C2.53996 13.4099 2.75996 13.3199 2.99996 13.3199ZM8.99996 1.67995C8.43996 1.67995 7.95996 1.87995 7.55996 2.27995C7.15996 2.67995 6.95996 3.16995 6.95996 3.74995C6.95996 4.32995 7.15996 4.81995 7.55996 5.21995C7.95996 5.61995 8.43996 5.81995 8.99996 5.81995C9.55996 5.81995 10.04 5.61995 10.44 5.21995C10.84 4.81995 11.04 4.32995 11.04 3.74995C11.04 3.16995 10.84 2.67995 10.44 2.27995C10.04 1.87995 9.55996 1.67995 8.99996 1.67995ZM8.99996 2.81995C9.23996 2.81995 9.45996 2.90995 9.65996 3.08995C9.85996 3.26995 9.95996 3.48995 9.95996 3.74995C9.95996 4.00995 9.85996 4.22995 9.65996 4.40995C9.45996 4.58995 9.23996 4.67995 8.99996 4.67995C8.75996 4.67995 8.53996 4.58995 8.33996 4.40995C8.13996 4.22995 8.03996 4.00995 8.03996 3.74995C8.03996 3.48995 8.13996 3.26995 8.33996 3.08995C8.53996 2.90995 8.75996 2.81995 8.99996 2.81995ZM8.99996 12.1799C8.43996 12.1799 7.95996 12.3799 7.55996 12.7799C7.15996 13.1799 6.95996 13.6699 6.95996 14.2499C6.95996 14.8299 7.15996 15.3199 7.55996 15.7199C7.95996 16.1199 8.43996 16.3199 8.99996 16.3199C9.55996 16.3199 10.04 16.1199 10.44 15.7199C10.84 15.3199 11.04 14.8299 11.04 14.2499C11.04 13.6699 10.84 13.1799 10.44 12.7799C10.04 12.3799 9.55996 12.1799 8.99996 12.1799ZM8.99996 13.3199C9.23996 13.3199 9.45996 13.4099 9.65996 13.5899C9.85996 13.7699 9.95996 13.9899 9.95996 14.2499C9.95996 14.5099 9.85996 14.7299 9.65996 14.9099C9.45996 15.0899 9.23996 15.1799 8.99996 15.1799C8.75996 15.1799 8.53996 15.0899 8.33996 14.9099C8.13996 14.7299 8.03996 14.5099 8.03996 14.2499C8.03996 13.9899 8.13996 13.7699 8.33996 13.5899C8.53996 13.4099 8.75996 13.3199 8.99996 13.3199ZM15 1.67995C14.44 1.67995 13.96 1.87995 13.56 2.27995C13.16 2.67995 12.96 3.16995 12.96 3.74995C12.96 4.32995 13.16 4.81995 13.56 5.21995C13.96 5.61995 14.44 5.81995 15 5.81995C15.56 5.81995 16.04 5.61995 16.44 5.21995C16.84 4.81995 17.04 4.32995 17.04 3.74995C17.04 3.16995 16.84 2.67995 16.44 2.27995C16.04 1.87995 15.56 1.67995 15 1.67995ZM15 2.81995C15.24 2.81995 15.46 2.90995 15.66 3.08995C15.86 3.26995 15.96 3.48995 15.96 3.74995C15.96 4.00995 15.86 4.22995 15.66 4.40995C15.46 4.58995 15.24 4.67995 15 4.67995C14.76 4.67995 14.54 4.58995 14.34 4.40995C14.14 4.22995 14.04 4.00995 14.04 3.74995C14.04 3.48995 14.14 3.26995 14.34 3.08995C14.54 2.90995 14.76 2.81995 15 2.81995ZM15 12.1799C14.44 12.1799 13.96 12.3799 13.56 12.7799C13.16 13.1799 12.96 13.6699 12.96 14.2499C12.96 14.8299 13.16 15.3199 13.56 15.7199C13.96 16.1199 14.44 16.3199 15 16.3199C15.56 16.3199 16.04 16.1199 16.44 15.7199C16.84 15.3199 17.04 14.8299 17.04 14.2499C17.04 13.6699 16.84 13.1799 16.44 12.7799C16.04 12.3799 15.56 12.1799 15 12.1799ZM15 13.3199C15.24 13.3199 15.46 13.4099 15.66 13.5899C15.86 13.7699 15.96 13.9899 15.96 14.2499C15.96 14.5099 15.86 14.7299 15.66 14.9099C15.46 15.0899 15.24 15.1799 15 15.1799C14.76 15.1799 14.54 15.0899 14.34 14.9099C14.14 14.7299 14.04 14.5099 14.04 14.2499C14.04 13.9899 14.14 13.7699 14.34 13.5899C14.54 13.4099 14.76 13.3199 15 13.3199ZM2.45996 5.21995V12.7199C2.45996 12.8799 2.50996 13.0199 2.60996 13.1399C2.70996 13.2599 2.83996 13.3199 2.99996 13.3199C3.15996 13.3199 3.28996 13.2599 3.38996 13.1399C3.48996 13.0199 3.53996 12.8999 3.53996 12.7799V5.21995C3.53996 5.09995 3.48996 4.97995 3.38996 4.85995C3.28996 4.73995 3.15996 4.67995 2.99996 4.67995C2.83996 4.67995 2.70996 4.73995 2.60996 4.85995C2.50996 4.97995 2.45996 5.09995 2.45996 5.21995ZM8.45996 5.21995V12.7199C8.45996 12.8799 8.50996 13.0199 8.60996 13.1399C8.70996 13.2599 8.83996 13.3199 8.99996 13.3199C9.15996 13.3199 9.28996 13.2599 9.38996 13.1399C9.48996 13.0199 9.53996 12.8999 9.53996 12.7799V5.21995C9.53996 5.09995 9.48996 4.97995 9.38996 4.85995C9.28996 4.73995 9.15996 4.67995 8.99996 4.67995C8.83996 4.67995 8.70996 4.73995 8.60996 4.85995C8.50996 4.97995 8.45996 5.09995 8.45996 5.21995ZM14.46 5.21995V8.21995C14.46 8.29995 14.44 8.35995 14.4 8.39995C14.36 8.43995 14.32 8.45995 14.28 8.45995H2.99996C2.83996 8.45995 2.70996 8.50995 2.60996 8.60995C2.50996 8.70995 2.45996 8.83995 2.45996 8.99995C2.45996 9.15995 2.50996 9.28995 2.60996 9.38995C2.70996 9.48995 2.83996 9.53995 2.99996 9.53995H14.28C14.64 9.53995 14.94 9.41995 15.18 9.17995C15.42 8.93995 15.54 8.61995 15.54 8.21995V5.27995C15.54 5.11995 15.49 4.97995 15.39 4.85995C15.29 4.73995 15.16 4.67995 15 4.67995C14.84 4.67995 14.71 4.73995 14.61 4.85995C14.51 4.97995 14.46 5.09995 14.46 5.21995Z" fill="#050B20"/>
</svg>
