<svg width="18" height="18" viewBox="0 0 18 18" fill="none" xmlns="http://www.w3.org/2000/svg">
<path d="M15.7799 7.32H16.3199C16.4799 7.32 16.6099 7.26 16.7099 7.14C16.8099 7.02 16.8599 6.89 16.8599 6.75C16.8599 6.61 16.8099 6.48 16.7099 6.36C16.6099 6.24 16.4799 6.18 16.3199 6.18H14.9399L14.0999 4.74C13.8199 4.3 13.4699 3.96 13.0499 3.72C12.6299 3.48 12.1599 3.36 11.6399 3.36H6.35989C5.83989 3.36 5.36989 3.48 4.94989 3.72C4.52989 3.96 4.17989 4.3 3.89989 4.74L3.05989 6.18H1.67989C1.51989 6.18 1.38989 6.24 1.28989 6.36C1.18989 6.48 1.13989 6.61 1.13989 6.75C1.13989 6.89 1.18989 7.02 1.28989 7.14C1.38989 7.26 1.51989 7.32 1.67989 7.32H2.27989L1.91989 7.74C1.39989 8.46 1.13989 9.26 1.13989 10.14V12.96C1.13989 13.4 1.29989 13.79 1.61989 14.13C1.93989 14.47 2.33989 14.64 2.81989 14.64H3.95989C4.39989 14.64 4.78989 14.47 5.12989 14.13C5.46989 13.79 5.63989 13.4 5.63989 12.96H12.3599C12.3599 13.4 12.5299 13.79 12.8699 14.13C13.2099 14.47 13.5999 14.64 14.0399 14.64H15.1799C15.6599 14.64 16.0599 14.47 16.3799 14.13C16.6999 13.79 16.8599 13.4 16.8599 12.96V10.14C16.8599 9.26 16.5999 8.46 16.0799 7.74L15.7799 7.32ZM4.85989 5.34C5.01989 5.06 5.22989 4.85 5.48989 4.71C5.74989 4.57 6.03989 4.5 6.35989 4.5H11.6399C11.9599 4.5 12.2499 4.57 12.5099 4.71C12.7699 4.85 12.9799 5.06 13.1399 5.34L13.8599 6.6L13.4999 6.84C13.0199 7.16 12.4999 7.32 11.9399 7.32H6.05989C5.49989 7.32 4.97989 7.16 4.49989 6.84L4.13989 6.6L4.85989 5.34ZM15.7799 12.96C15.7799 13.08 15.7199 13.2 15.5999 13.32C15.4799 13.44 15.3399 13.5 15.1799 13.5H14.0399C13.9199 13.5 13.7999 13.44 13.6799 13.32C13.5599 13.2 13.4999 13.08 13.4999 12.96V12.36C13.4999 12.2 13.4499 12.07 13.3499 11.97C13.2499 11.87 13.1199 11.82 12.9599 11.82H5.03989C4.87989 11.82 4.74989 11.87 4.64989 11.97C4.54989 12.07 4.49989 12.2 4.49989 12.36V12.96C4.49989 13.08 4.43989 13.2 4.31989 13.32C4.19989 13.44 4.07989 13.5 3.95989 13.5H2.81989C2.65989 13.5 2.51989 13.44 2.39989 13.32C2.27989 13.2 2.21989 13.08 2.21989 12.96V10.14C2.25989 9.5 2.45989 8.94 2.81989 8.46L3.47989 7.5L3.89989 7.8C4.57989 8.24 5.29989 8.46 6.05989 8.46H11.9399C12.6999 8.46 13.4199 8.24 14.0999 7.8L14.5199 7.5L15.1799 8.46C15.5399 8.94 15.7199 9.5 15.7199 10.14V12.96H15.7799ZM13.4999 10.14C13.4999 10.3 13.5499 10.43 13.6499 10.53C13.7499 10.63 13.8799 10.68 14.0399 10.68C14.1999 10.68 14.3399 10.63 14.4599 10.53C14.5799 10.43 14.6399 10.3 14.6399 10.14C14.6399 9.98 14.5799 9.84 14.4599 9.72C14.3399 9.6 14.1999 9.54 14.0399 9.54C13.8799 9.54 13.7499 9.6 13.6499 9.72C13.5499 9.84 13.4999 9.98 13.4999 10.14ZM3.35989 10.14C3.35989 10.3 3.41989 10.43 3.53989 10.53C3.65989 10.63 3.79989 10.68 3.95989 10.68C4.11989 10.68 4.24989 10.63 4.34989 10.53C4.44989 10.43 4.49989 10.3 4.49989 10.14C4.49989 9.98 4.44989 9.84 4.34989 9.72C4.24989 9.6 4.11989 9.54 3.95989 9.54C3.79989 9.54 3.65989 9.6 3.53989 9.72C3.41989 9.84 3.35989 9.98 3.35989 10.14Z" fill="#050B20"/>
</svg>
