<svg width="18" height="18" viewBox="0 0 18 18" fill="none" xmlns="http://www.w3.org/2000/svg">
<g clip-path="url(#clip0_64_444)">
<path d="M17.46 6.71999H15.78C15.62 6.71999 15.48 6.77999 15.36 6.89999C15.24 7.01999 15.18 7.15999 15.18 7.31999V7.85999H14.64V7.31999C14.64 7.15999 14.58 7.02999 14.46 6.92999C14.34 6.82999 14.2 6.77999 14.04 6.77999H13.2L11.64 5.21999C11.6 5.17999 11.54 5.13999 11.46 5.09999C11.38 5.05999 11.32 5.03999 11.28 5.03999H9.54V3.95999H10.68C10.84 3.95999 10.98 3.89999 11.1 3.77999C11.22 3.65999 11.28 3.51999 11.28 3.35999C11.28 3.19999 11.22 3.06999 11.1 2.96999C10.98 2.86999 10.84 2.81999 10.68 2.81999H5.64C5.48 2.81999 5.34 2.86999 5.22 2.96999C5.1 3.06999 5.04 3.19999 5.04 3.35999C5.04 3.51999 5.1 3.65999 5.22 3.77999C5.34 3.89999 5.48 3.95999 5.64 3.95999H6.78V5.03999H5.04L4.8 5.15999L4.62 5.27999L3.66 6.71999H2.28C2.12 6.71999 1.98 6.77999 1.86 6.89999C1.74 7.01999 1.68 7.15999 1.68 7.31999V8.99999H1.14V7.31999C1.14 7.15999 1.08 7.02999 0.96 6.92999C0.84 6.82999 0.7 6.76999 0.54 6.74999C0.38 6.72999 0.25 6.77999 0.15 6.89999C0.05 7.01999 0 7.15999 0 7.31999V12.36C0 12.52 0.05 12.66 0.15 12.78C0.25 12.9 0.38 12.96 0.54 12.96C0.7 12.96 0.84 12.9 0.96 12.78C1.08 12.66 1.14 12.52 1.14 12.36V10.14H1.68V12.36C1.68 12.52 1.74 12.66 1.86 12.78C1.98 12.9 2.1 12.96 2.22 12.96H3.6L4.56 14.88L4.68 15L4.8 15.12L5.04 15.18H11.82C11.9 15.18 11.98 15.16 12.06 15.12L12.24 15L14.34 12.36H15.18V12.96C15.18 13.12 15.24 13.25 15.36 13.35C15.48 13.45 15.62 13.5 15.78 13.5H17.46C17.62 13.5 17.75 13.45 17.85 13.35C17.95 13.25 18 13.12 18 12.96V7.31999C18 7.15999 17.95 7.02999 17.85 6.92999C17.75 6.82999 17.62 6.77999 17.46 6.77999V6.71999ZM16.86 12.36H16.32V11.82C16.32 11.66 16.26 11.52 16.14 11.4C16.02 11.28 15.9 11.22 15.78 11.22L14.04 11.28L13.8 11.34L13.62 11.46L11.52 14.04H5.4L4.44 12.06L4.32 11.94L4.02 11.82H2.82V7.85999H3.96H4.14L4.32 7.73999L5.34 6.17999H7.32C7.48 6.17999 7.61 6.12999 7.71 6.02999C7.81 5.92999 7.86 5.79999 7.86 5.63999V3.95999H8.46V5.63999C8.46 5.79999 8.51 5.92999 8.61 6.02999C8.71 6.12999 8.84 6.17999 9 6.17999H11.04L12.54 7.67999C12.58 7.75999 12.64 7.80999 12.72 7.82999C12.8 7.84999 12.88 7.85999 12.96 7.85999H13.5V8.45999C13.5 8.61999 13.55 8.74999 13.65 8.84999C13.75 8.94999 13.88 8.99999 14.04 8.99999H15.78C15.9 8.99999 16.02 8.94999 16.14 8.84999C16.26 8.74999 16.32 8.61999 16.32 8.45999V7.85999H16.86V12.36ZM10.98 7.97999C10.86 7.89999 10.73 7.86999 10.59 7.88999C10.45 7.90999 10.32 7.97999 10.2 8.09999L7.92 11.58L6.54 10.5C6.42 10.42 6.28 10.39 6.12 10.41C5.96 10.43 5.83 10.5 5.73 10.62C5.63 10.74 5.59 10.88 5.61 11.04C5.63 11.2 5.7 11.32 5.82 11.4L7.68 12.84C7.8 12.92 7.92 12.96 8.04 12.96H8.1C8.26 12.92 8.38 12.82 8.46 12.66L11.16 8.75999C11.24 8.63999 11.27 8.49999 11.25 8.33999C11.23 8.17999 11.14 8.05999 10.98 7.97999Z" fill="#050B20"/>
</g>
<defs>
<clipPath id="clip0_64_444">
<rect width="18" height="18" fill="white" transform="matrix(1 0 0 -1 0 18)"/>
</clipPath>
</defs>
</svg>
