<svg width="41" height="41" viewBox="0 0 41 41" fill="none" xmlns="http://www.w3.org/2000/svg">
<path d="M20.3707 16.7559C22.2164 16.7559 23.7398 18.2793 23.7398 20.125C23.7398 22 22.2164 23.4941 20.3707 23.4941C18.4957 23.4941 17.0016 22 17.0016 20.125C17.0016 18.2793 18.4957 16.7559 20.3707 16.7559ZM20.3707 22.3223C21.5719 22.3223 22.5387 21.3555 22.5387 20.125C22.5387 18.9238 21.5719 17.957 20.3707 17.957C19.1402 17.957 18.1734 18.9238 18.1734 20.125C18.1734 21.3555 19.1695 22.3223 20.3707 22.3223ZM24.648 16.6387C24.648 17.0781 24.2965 17.4297 23.857 17.4297C23.4176 17.4297 23.066 17.0781 23.066 16.6387C23.066 16.1992 23.4176 15.8477 23.857 15.8477C24.2965 15.8477 24.648 16.1992 24.648 16.6387ZM26.8746 17.4297C26.9332 18.5137 26.9332 21.7656 26.8746 22.8496C26.816 23.9043 26.5816 24.8125 25.8199 25.6035C25.0582 26.3652 24.1207 26.5996 23.066 26.6582C21.982 26.7168 18.7301 26.7168 17.6461 26.6582C16.5914 26.5996 15.6832 26.3652 14.8922 25.6035C14.1305 24.8125 13.8961 23.9043 13.8375 22.8496C13.7789 21.7656 13.7789 18.5137 13.8375 17.4297C13.8961 16.375 14.1305 15.4375 14.8922 14.6758C15.6832 13.9141 16.5914 13.6797 17.6461 13.6211C18.7301 13.5625 21.982 13.5625 23.066 13.6211C24.1207 13.6797 25.0582 13.9141 25.8199 14.6758C26.5816 15.4375 26.816 16.375 26.8746 17.4297ZM25.4684 23.9922C25.8199 23.1426 25.732 21.0918 25.732 20.125C25.732 19.1875 25.8199 17.1367 25.4684 16.2578C25.234 15.7012 24.7945 15.2324 24.2379 15.0273C23.359 14.6758 21.3082 14.7637 20.3707 14.7637C19.4039 14.7637 17.3531 14.6758 16.5035 15.0273C15.9176 15.2617 15.4781 15.7012 15.2437 16.2578C14.8922 17.1367 14.9801 19.1875 14.9801 20.125C14.9801 21.0918 14.8922 23.1426 15.2437 23.9922C15.4781 24.5781 15.9176 25.0176 16.5035 25.252C17.3531 25.6035 19.4039 25.5156 20.3707 25.5156C21.3082 25.5156 23.359 25.6035 24.2379 25.252C24.7945 25.0176 25.2633 24.5781 25.4684 23.9922Z" fill="white"/>
<a href="https://www.figma.com/design/PzQUNVEIeMrv8HjdXbjYra?node-id=19-1446">
<rect fill="black" fill-opacity="0" x="0.178312" y="-1.125" width="13.125" height="17.25"/>
</a>
</svg>
