<svg width="41" height="41" viewBox="0 0 41 41" fill="none" xmlns="http://www.w3.org/2000/svg">
<path d="M16.7379 25.75H14.0133V16.9902H16.7379V25.75ZM15.3609 15.8184C14.5113 15.8184 13.8082 15.0859 13.8082 14.207C13.8082 13.3574 14.5113 12.6543 15.3609 12.6543C16.2398 12.6543 16.943 13.3574 16.943 14.207C16.943 15.0859 16.2398 15.8184 15.3609 15.8184ZM26.9039 25.75H24.2086V21.502C24.2086 20.4766 24.1793 19.1875 22.773 19.1875C21.3668 19.1875 21.1617 20.2715 21.1617 21.4141V25.75H18.4371V16.9902H21.0445V18.1914H21.0738C21.4547 17.5176 22.3336 16.7852 23.6519 16.7852C26.4059 16.7852 26.9332 18.6016 26.9332 20.9453V25.75H26.9039Z" fill="white"/>
<a href="https://www.figma.com/design/PzQUNVEIeMrv8HjdXbjYra?node-id=19-1446">
<rect fill="black" fill-opacity="0" x="0.178312" y="-1.125" width="13.125" height="17.25"/>
</a>
</svg>
