<svg width="24" height="24" viewBox="0 0 24 24" fill="none" xmlns="http://www.w3.org/2000/svg">
<rect width="24" height="24" fill="white"/>
<path d="M10.7516 16.8604V18.8904C10.7516 20.6104 9.15158 22.0004 7.18158 22.0004C5.21158 22.0004 3.60156 20.6104 3.60156 18.8904V16.8604M10.7516 16.8604C10.7516 18.5704 9.15158 19.8004 7.18158 19.8004M10.7516 16.8604V14.11C10.7516 13.25 10.3516 12.47 9.71161 11.91C9.06161 11.35 8.17158 11 7.18158 11C5.20158 11 3.60156 12.39 3.60156 14.11V16.8604M10.7516 16.8604C10.7516 18.5804 9.15158 19.8004 7.18158 19.8004M3.60156 16.8604C3.60156 18.5804 5.20158 19.8004 7.18158 19.8004M3.60156 16.8604C3.60156 18.5704 5.21158 19.8004 7.18158 19.8004M21 14.05C21.56 14.03 22 13.58 22 13.03V10.97C22 10.42 21.56 9.97001 21 9.95001M21 14.05H19.04C17.96 14.05 16.97 13.26 16.88 12.18C16.82 11.55 17.06 10.96 17.48 10.55C17.85 10.17 18.36 9.95001 18.92 9.95001H21M21 14.05L21 15.5C21 18.5 19 20.5 16 20.5H13.5M21 9.95001L21 8.5C21 5.76 19.33 3.84999 16.75 3.54999C16.51 3.50999 16.26 3.5 16 3.5H7C6.72 3.5 6.45 3.52 6.19 3.56C3.64 3.88 2 5.78 2 8.5V10.5M10.75 14.11C10.75 14.61 10.61 15.07 10.37 15.47C9.78 16.44 8.56998 17.05 7.16998 17.05C5.76998 17.05 4.55997 16.43 3.96997 15.47C3.72997 15.07 3.59003 14.61 3.59003 14.11C3.59003 13.25 3.99 12.48 4.63 11.92C5.28 11.35 6.16997 11.01 7.15997 11.01C8.14997 11.01 9.04 11.36 9.69 11.92C10.35 12.47 10.75 13.25 10.75 14.11Z" stroke="#90A3BF" stroke-width="1.5" stroke-linecap="round" stroke-linejoin="round"/>
</svg>
