<svg width="41" height="41" viewBox="0 0 41 41" fill="none" xmlns="http://www.w3.org/2000/svg">
<path d="M26.3247 17.0781C26.3247 17.2246 26.3247 17.3418 26.3247 17.4883C26.3247 21.5605 23.2485 26.2188 17.5942 26.2188C15.8364 26.2188 14.2251 25.7207 12.8774 24.8418C13.1118 24.8711 13.3462 24.9004 13.6099 24.9004C15.0454 24.9004 16.3638 24.4023 17.4185 23.582C16.0708 23.5527 14.9282 22.6738 14.5474 21.4434C14.7524 21.4727 14.9282 21.502 15.1333 21.502C15.397 21.502 15.6899 21.4434 15.9243 21.3848C14.5181 21.0918 13.4634 19.8613 13.4634 18.3672V18.3379C13.8735 18.5723 14.3716 18.6895 14.8696 18.7188C14.02 18.1621 13.4927 17.2246 13.4927 16.1699C13.4927 15.584 13.6392 15.0566 13.9028 14.6172C15.4263 16.4629 17.7114 17.6934 20.2603 17.8398C20.2017 17.6055 20.1724 17.3711 20.1724 17.1367C20.1724 15.4375 21.5493 14.0605 23.2485 14.0605C24.1274 14.0605 24.9185 14.4121 25.5044 15.0273C26.1782 14.8809 26.8521 14.6172 27.438 14.2656C27.2036 14.998 26.7349 15.584 26.0903 15.9648C26.7056 15.9062 27.3208 15.7305 27.8481 15.4961C27.438 16.1113 26.9106 16.6387 26.3247 17.0781Z" fill="white"/>
<a href="https://www.figma.com/design/PzQUNVEIeMrv8HjdXbjYra?node-id=19-1446">
<rect fill="black" fill-opacity="0" x="0.1875" y="-1.125" width="15" height="17.25"/>
</a>
</svg>
